<svg xmlns="http://www.w3.org/2000/svg" width="280" height="56" viewBox="0 0 280 56" fillRule="evenodd">
  <defs>
    <linearGradient id="grad1" x1="0%" y1="0%" x2="100%" y2="0%">
      <stop offset="0%" style="stop-color:#3c52d9;stop-opacity:1" />
      <stop offset="100%" style="stop-color:#2ef2ff;stop-opacity:1" />
    </linearGradient>
  </defs>
  <path fill="#3c52d9" d="M55.27 23.196c.973.99.973 2.594 0 3.583L45.083 37.141a1.64 1.64 0 0 1-2.349 0L30.85 25.052c-.467-.475-.73-1.12-.73-1.792V1.693c0-1.505 1.789-2.259 2.835-1.194l22.314 22.698.001-.001zM10.301 36.504a2.46 2.46 0 0 0 3.523 0l11.29-11.485c.467-.475.729-1.12.729-1.792V1.713c0-1.505-1.789-2.259-2.835-1.195L.73 23.183c-.973.99-.973 2.594 0 3.584l9.571 9.737z"/>
  <rect width="18.967" height="19.118" x="18.469" y="32.859" fill="#2ef2ff" rx="3.099" transform="rotate(315 27.952 42.418)"/>
  <text x="70" y="38" font-family="'Inter', 'Roboto', sans-serif" font-weight="800" font-size="28" fill="url(#grad1)">Techode Labs</text>
</svg>
